<?xml version="1.0" encoding="UTF-8"?>
<svg width="24" height="24" viewBox="0 0 24 24" fill="none" xmlns="http://www.w3.org/2000/svg">
  <path d="M19.5 13.5725L12 21L4.5 13.5725C3.4849 12.5575 2.87953 11.1907 2.8131 9.74242C2.74667 8.29415 3.23184 6.87835 4.18227 5.76957C5.1327 4.66079 6.48079 3.93562 7.92647 3.73754C9.37214 3.53946 10.8361 3.88214 12.0105 4.69641L12 4.70697L11.9895 4.69641C13.1639 3.88214 14.6279 3.53946 16.0735 3.73754C17.5192 3.93562 18.8673 4.66079 19.8177 5.76957C20.7682 6.87835 21.2533 8.29415 21.1869 9.74242C21.1205 11.1907 20.5151 12.5575 19.5 13.5725Z" fill="#EF4444"/>
</svg>